<?xml version="1.0" encoding="iso-8859-1"?>
<!-- Generator: Adobe Illustrator 19.0.0, SVG Export Plug-In . SVG Version: 6.00 Build 0)  -->
<svg version="1.1" id="Capa_1" xmlns="http://www.w3.org/2000/svg" xmlns:xlink="http://www.w3.org/1999/xlink" x="0px" y="0px"
	 viewBox="0 0 512 512" style="enable-background:new 0 0 512 512;" xml:space="preserve">
<path style="fill:#DCE1EB;" d="M272.891,243.141v51.694c0,8.286-6.724,15.01-15.01,15.01c-8.286,0-15.01-6.724-15.01-15.01v-51.694
	c0-8.285,6.724-15.01,15.01-15.01C266.166,228.131,272.891,234.856,272.891,243.141z"/>
<path style="fill:#CDD2E1;" d="M272.891,243.141v51.694c0,8.286-6.724,15.01-15.01,15.01v-81.714
	C266.166,228.131,272.891,234.856,272.891,243.141z"/>
<path style="fill:#FF873C;" d="M454.841,116.087l-104.88,110.613l-18.853,19.883c-6.975,7.355-16.781,11.568-26.918,11.568h-90.39
	c-9.786,0-19.023-3.773-25.997-10.627l-20.694-20.344L58.078,120.04c-14.41-14.149-14.76-37.525-0.781-52.115l54.136-56.498
	c2.201-2.312,4.693-4.303,7.395-5.944C124.622,1.941,131.347,0,138.211,0h234.636c6.714,0,13.189,1.791,18.842,5.143
	c2.512,1.471,4.853,3.262,6.995,5.344l55.077,53.476C468.26,78.042,468.751,101.427,454.841,116.087z"/>
<path style="fill:#FA732D;" d="M454.841,116.087l-104.88,110.613l-18.853,19.883c-6.975,7.355-16.781,11.568-26.918,11.568h-46.311
	V0h114.966c6.714,0,13.189,1.791,18.842,5.143c2.512,1.471,4.853,3.262,6.995,5.344l55.077,53.476
	C468.26,78.042,468.751,101.427,454.841,116.087z"/>
<path style="fill:#FFC44D;" d="M373.968,395.913c0,64.002-52.075,116.087-116.087,116.087s-116.087-52.085-116.087-116.087
	c0-64.013,52.075-116.087,116.087-116.087S373.968,331.9,373.968,395.913z"/>
<path style="fill:#FF9D3B;" d="M373.968,395.913c0,64.002-52.075,116.087-116.087,116.087V279.826
	C321.893,279.826,373.968,331.9,373.968,395.913z"/>
<path style="fill:#FFE388;" d="M266.987,352.224c-1.751-1.141-3.682-1.711-5.794-1.711c-1.351,0-2.452,0.24-3.312,0.73
	c-0.08,0.04-0.16,0.08-0.23,0.13l-16.121,9.766c-2.362,1.381-3.542,3.542-3.542,6.474c0,1.951,0.57,3.702,1.711,5.243
	c1.141,1.551,2.562,2.322,4.273,2.322c1.061,0,2.071-0.32,3.052-0.971l3.542-2.201v62.151c0,1.881,0.931,3.322,2.812,4.343
	c1.321,0.71,2.822,1.181,4.503,1.381c0.7,0.1,1.441,0.14,2.211,0.14c2.602,0,4.843-0.51,6.714-1.521
	c1.871-1.021,2.812-2.462,2.812-4.343v-77.662C269.618,354.786,268.738,353.365,266.987,352.224z"/>
<path style="fill:#CF0404;" d="M454.841,116.087l-104.88,110.613l-18.853,19.883c-6.975,7.355-16.781,11.568-26.918,11.568h-90.39
	c-9.786,0-19.023-3.773-25.997-10.627l-20.694-20.344L391.689,5.143c2.512,1.471,4.853,3.262,6.995,5.344l55.077,53.476
	C468.26,78.042,468.751,101.427,454.841,116.087z"/>
<path style="fill:#FF2121;" d="M349.962,226.701l-18.853,19.883c-6.975,7.355-16.781,11.568-26.918,11.568h-90.39
	c-9.786,0-19.023-3.773-25.997-10.627L58.078,120.04c-14.41-14.149-14.76-37.525-0.781-52.115l54.136-56.498
	c2.201-2.312,4.693-4.303,7.395-5.944L349.962,226.701z"/>
<path style="fill:#FFC44D;" d="M269.618,356.497v77.662c0,1.881-0.941,3.322-2.812,4.343c-1.871,1.011-4.113,1.521-6.714,1.521
	c-0.771,0-1.511-0.04-2.211-0.14v-88.639c0.861-0.49,1.961-0.73,3.312-0.73c2.111,0,4.043,0.57,5.794,1.711
	S269.618,354.786,269.618,356.497z"/>
<g>
</g>
<g>
</g>
<g>
</g>
<g>
</g>
<g>
</g>
<g>
</g>
<g>
</g>
<g>
</g>
<g>
</g>
<g>
</g>
<g>
</g>
<g>
</g>
<g>
</g>
<g>
</g>
<g>
</g>
</svg>
